<?xml version="1.0" encoding="utf-8"?>
<!-- Generator: Adobe Illustrator 24.0.2, SVG Export Plug-In . SVG Version: 6.00 Build 0)  -->
<svg version="1.1" id="Capa_1" xmlns="http://www.w3.org/2000/svg" xmlns:xlink="http://www.w3.org/1999/xlink" x="0px" y="0px"
	 viewBox="0 0 366.3 50" style="enable-background:new 0 0 366.3 50;" xml:space="preserve">
<style type="text/css">
	.st0{fill:#FFFFFF;}
</style>
<g>
	<g>
		<g>
			<path class="st0" d="M114.6,15.2c0-0.6-0.4-1.2-1.2-1.2h-17c-0.8,0-1.2,0.5-1.2,1.2c0,0.6,0.4,1.2,1.2,1.2h2.5
				c0.8,0,1.5,0.7,1.5,1.5v15.5c0,0.8,0.7,1.5,1.5,1.5h6.1c0.8,0,1.5-0.7,1.5-1.5V17.9c0-0.8,0.7-1.5,1.5-1.5h2.4
				C114.2,16.4,114.6,15.8,114.6,15.2z"/>
		</g>
		<g>
			<path class="st0" d="M153.3,14c-0.6,0-1.1,0.4-1.1,1.2v3.5c0,0.8-0.6,1.3-1.4,1l-13.9-5.2c-0.8-0.3-2-0.6-2.5-0.5
				c-0.6,0.1-1.1,0.7-1.1,1.5v18.1c0,0.8,0.5,1.2,1.1,1.2c0.6,0,1.1-0.4,1.1-1.2v-3.5c0-0.8,0.6-1.3,1.4-1l13.9,5.2
				c0.8,0.3,1.9,0.5,2.5,0.5c0.6,0,1.1-0.7,1.1-1.5v-18C154.4,14.4,153.9,14,153.3,14z"/>
		</g>
		<g>
			<path class="st0" d="M199.1,24.5c0,5.9-4.8,10.7-10.7,10.7c-5.9,0-10.6-4.8-10.6-10.7s4.8-10.7,10.6-10.7
				C194.4,13.8,199.1,18.6,199.1,24.5z"/>
		</g>
		<g>
			<path class="st0" d="M167,21.2c-0.5,0-0.8-0.4-0.8-0.8v-5.7c0-0.5,0-0.8,0-0.8l0,0c-5.9,0-10.7,4.8-10.7,10.7s4.8,10.7,10.7,10.7
				c5.9,0,10.7-4.8,10.7-10.7c0-1.1-0.3-2.4-0.3-2.4c-0.1-0.4-0.6-0.8-1-0.8H167V21.2z"/>
		</g>
		<g>
			<path class="st0" d="M122.9,32.2c0.7,0,1.4,0.5,1.7,1.1l0.3,0.6c0.3,0.6,1.1,1.1,1.8,1.1h5.2c0.7,0,0.9-0.5,0.6-1.1l-10.2-19.5
				c-0.3-0.6-0.8-0.6-1.1,0L111,33.8c-0.3,0.6,0,1.1,0.6,1.1h0.4c0.7,0,1.3-0.2,1.6-0.8l0.5-0.9c0.3-0.6,1.1-1.1,1.8-1.1h7V32.2z"/>
		</g>
	</g>
	<g>
		<path class="st0" d="M218.3,18.1c-2-0.2-3.6,0.4-4.5,1.3c-1.1,1-1.7,2.5-1.7,4.1v9.2h-1.1V17.5h1.1V20c0.3-0.5,0.6-1,1-1.4
			c1.3-1.2,3.1-1.7,5.2-1.5V18.1z"/>
		<path class="st0" d="M218.9,25.1c0,4,3,6.9,6.7,6.9c3.6,0,5.2-2,6-4h1.2c-1.1,3.3-3.5,5.1-7.1,5.1c-4.4,0-7.8-3.5-7.8-7.9
			s3.4-8.1,7.6-8.1c4.6,0,7.7,4.2,7.6,8C233.1,25.1,218.9,25.1,218.9,25.1z M231.9,24c-0.5-3.3-3.2-5.8-6.4-5.8s-5.9,2.5-6.4,5.8
			H231.9z"/>
		<path class="st0" d="M245.9,31.3c-1.1,1.1-2.9,1.8-5,1.8c-3.9,0-6.6-1.7-7.1-4.8h1.1c0.5,2.5,2.7,3.8,6,3.8c1.8,0,3.4-0.6,4.3-1.5
			c0.5-0.6,0.8-1.3,0.7-2.1c-0.1-1.9-1.6-2.8-5.3-3.4c-2.6-0.4-5.9-0.8-6-3.9c0-2.1,2-4.2,5.8-4.2c3.4,0,5.6,1.5,6.3,4.3h-1.1
			c-0.6-2-2.4-3.2-5.1-3.2c-2.8,0-4.7,1.3-4.7,3.1c0,1.7,1.6,2.3,5,2.8c3.2,0.5,6.1,1.3,6.3,4.4C247.1,29.5,246.6,30.5,245.9,31.3z"
			/>
		<path class="st0" d="M250.8,27.5c0,2.6,1.2,4.4,4.1,4.3v1c-3.3,0.3-5.2-1.9-5.2-5.3v-8.9h-2.1v-1.1h2.1v-3.3h1.1v3.3h4.1v1.1h-4.1
			L250.8,27.5L250.8,27.5z"/>
		<path class="st0" d="M271,25.1c0,4.4-3.4,7.9-7.7,7.9c-4.2,0-7.6-3.6-7.6-7.9c0-4.4,3.4-8.1,7.6-8.1C267.6,17.1,271,20.7,271,25.1
			z M269.9,25.1c0-3.9-2.9-7-6.5-7s-6.5,3.1-6.5,7c0,3.8,2.9,6.9,6.5,6.9S269.9,28.9,269.9,25.1z M262.6,12.3h1.3l2.4,2.9H265
			l-1.7-2.2l-1.7,2.2h-1.3L262.6,12.3z"/>
	</g>
</g>
</svg>
