<?xml version="1.0" encoding="utf-8"?>
<!-- Generator: Adobe Illustrator 28.7.1, SVG Export Plug-In . SVG Version: 9.03 Build 54978)  -->
<svg version="1.0" id="Layer_1" xmlns="http://www.w3.org/2000/svg" xmlns:xlink="http://www.w3.org/1999/xlink" x="0px" y="0px"
	 viewBox="0 0 798.8 121.1" style="enable-background:new 0 0 798.8 121.1;" xml:space="preserve">
<style type="text/css">
	.st0{fill:#FFFFFF;}
</style>
<g>
	<g>
		<g>
			<path class="st0" d="M84,18.1h-9.5c-3.2,0-5.8,2.6-5.8,5.8v60.3c0,3.2-2.6,5.8-5.8,5.8H39c-3.2,0-5.8-2.6-5.8-5.8V23.8
				c0-3.2-2.6-5.8-5.8-5.8h-9.5c-3.2,0-4.8-2-4.8-4.5S14.7,9,17.9,9H84c3.2,0,4.8,2,4.8,4.5C88.7,16,87.2,18.1,84,18.1z M238.9,9
				c-2.3,0-4.1,1.6-4.1,4.8v13.5c0,3.2-2.4,4.9-5.4,3.8l-53.8-20c-3-1.1-7.9-2.4-9.5-2c-2.2,0.5-4.1,2.6-4.1,5.8v70.4
				c0,3.2,1.8,4.8,4.1,4.8c2.2,0,4.1-1.6,4.1-4.8V71.5c0-3.2,2.4-4.9,5.4-3.8l53.8,20.1c3,1.1,7.3,2,9.5,2s4.1-2.6,4.1-5.8V13.7
				C243,10.6,241.2,9,238.9,9z M375.4,8.1c-22.8,0-41.3,18.5-41.3,41.3s18.5,41.3,41.3,41.3s41.3-18.5,41.3-41.3
				C416.7,26.6,398.2,8.1,375.4,8.1z M292,36.8c-1.8,0-3.2-1.5-3.2-3.2V11.3c0-1.8,0-3.2-0.1-3.2l0,0c-22.8,0-41.3,18.5-41.3,41.3
				s18.5,41.3,41.3,41.3c22.8,0,41.4-18.5,41.4-41.3c0-4.4-1.2-9.5-1.2-9.5c-0.4-1.7-2.2-3.2-4-3.2H292V36.8z M120.9,79.4
				c2.6,0,5.6,1.9,6.8,4.1l1.2,2.3c1.2,2.3,4.2,4.1,6.8,4.1h20.2c2.5,0,3.7-1.8,2.5-4.1l-39.7-75.3c-1.2-2.3-3.1-2.3-4.3,0
				L74.6,85.8c-1.2,2.3-0.1,4.1,2.5,4.1h1.6c2.5,0,5-0.7,6.2-3l1.8-3.4c1.2-2.3,4.2-4.1,6.8-4.1H120.9z"/>
		</g>
	</g>
</g>
<path class="st0" d="M475.6,86.1h-24.7V11.9h24.7c23.3,0,39.5,16,39.5,36.9V49C515.1,69.9,498.9,86.1,475.6,86.1 M509.3,49
	c0-17.6-13-32-33.7-32h-19.2v64.1h19.2c20.7,0,33.7-14.1,33.7-31.8V49z M587.2,86.1V81h-47.8V51.2h42.5v-5.1h-42.5V17h47.3v-5.1
	h-52.8v74.2H587.2z M656.3,86.1V81h-43.6V11.9h-5.5v74.2H656.3z M704,17v-5.1h-57.3V17h25.9v69.2h5.5V17H704z"/>
<g>
	<path class="st0" d="M741.6,20.3l-54.8,90.4l-3.9,2.7L741.6,9.9l13.5,23.6l-3.7,3.8L741.6,20.3z M772.6,74.2l4.2,7.2h-54l-2.8,5.1
		h65.4l-7.8-13.7L772.6,74.2z M779.5,56h-8.7l2-10.2h-2.9L767.8,56h-19.7l27.3-27.4h-3.6L744,56.5l-0.4,2.2h23.6l-2.3,11.5h3
		l2.3-11.5h8.7L779.5,56z"/>
</g>
</svg>
