<?xml version="1.0" encoding="utf-8"?>
<!-- Generator: Adobe Illustrator 25.1.0, SVG Export Plug-In . SVG Version: 6.00 Build 0)  -->
<svg version="1.1" id="Layer_1" xmlns="http://www.w3.org/2000/svg" xmlns:xlink="http://www.w3.org/1999/xlink" x="0px" y="0px"
	 viewBox="0 0 128 128" style="enable-background:new 0 0 128 128;" xml:space="preserve">
<style type="text/css">
	.st0{fill:#F47B3F;}
</style>
<path class="st0" d="M99.6,22.3c4,0,7.3,3.3,7.3,7.3s-3.3,7.3-7.3,7.3c-4,0-7.3-3.3-7.3-7.3S95.6,22.3,99.6,22.3 M99.6,15
	c-8,0-14.6,6.5-14.6,14.6c0,8,6.5,14.6,14.6,14.6c8,0,14.6-6.5,14.6-14.6C114.1,21.6,107.6,15,99.6,15L99.6,15z M99.6,85.6
	c-8,0-14.6,6.5-14.6,14.6c0,0.6,0,1.2,0.1,1.8c-5.5,2.6-11.5,4-17.7,4C44.6,105.9,26,87.3,26,64.5s18.6-41.4,41.4-41.4
	c3.3,0,6.6,0.4,9.8,1.2c1-4.2,3.1-8,6.1-10.9c-5.1-1.6-10.4-2.4-15.8-2.4c-29.5,0-53.6,24-53.6,53.6s24,53.6,53.6,53.6
	c8.5,0,16.7-2,24.2-5.8c2.3,1.5,5,2.4,8,2.4c8,0,14.6-6.5,14.6-14.6C114.1,92.1,107.6,85.6,99.6,85.6z"/>
</svg>
