<?xml version="1.0" encoding="utf-8"?>
<!-- Generator: Adobe Illustrator 21.0.0, SVG Export Plug-In . SVG Version: 6.00 Build 0)  -->
<svg version="1.1" id="Capa_1" xmlns="http://www.w3.org/2000/svg" xmlns:xlink="http://www.w3.org/1999/xlink" x="0px" y="0px"
	 viewBox="0 0 114 66" style="enable-background:new 0 0 114 66;" xml:space="preserve">
<style type="text/css">
	.st0{fill:#3BB1DF;}
	.st1{fill:#232020;}
	.st2{fill:#009151;}
</style>
<g>
	<g>
		<g>
			<g>
				<path class="st0" d="M73.5,47h-6.6v-2.6c-0.9,1-1.9,1.7-2.9,2.2c-1,0.5-2.2,0.7-3.6,0.7c-2.8,0-4.6-0.8-5.4-2.4
					c-0.8-1.6-1.2-3.5-1.2-5.5V28.5h6.6v9.6v0.4c0,1,0.2,1.9,0.5,2.6c0.3,0.8,1.1,1.1,2.2,1.1c1,0,1.7-0.3,2.3-0.8
					c0.6-0.5,1.1-1.2,1.7-2.1V28.5h6.6V47z"/>
				<path class="st0" d="M95.1,46.1c-1,0.4-1.9,0.7-2.7,0.9c-0.8,0.2-1.8,0.3-2.9,0.3c-1.1,0-1.8-0.2-2.3-0.6
					c-0.4-0.4-0.7-0.8-0.9-1.4c-0.7,0.6-1.5,1-2.4,1.4c-0.9,0.4-2,0.6-3.4,0.6c-1.4,0-2.4-0.2-3.3-0.7c-0.8-0.5-1.4-1.1-1.8-1.8
					c-0.3-0.7-0.5-1.4-0.5-2.2c0-1.1,0.3-2.1,0.9-2.8c0.6-0.8,1.4-1.4,2.3-1.8c1-0.5,2.3-1,3.9-1.5c0.9-0.3,1.6-0.5,2.1-0.7
					c0.5-0.2,0.8-0.3,1.1-0.4c0.2-0.1,0.5-0.2,0.7-0.3c0-0.9-0.2-1.6-0.5-2.1c-0.4-0.5-1.2-0.8-2.4-0.8c-1.4,0-2.8,0.3-4,1
					c-1.2,0.6-2.4,1.5-3.4,2.4v-5c0.8-0.6,1.7-1.1,2.7-1.4c1-0.4,1.9-0.6,3-0.8c1-0.2,2.1-0.3,3.1-0.3c2.7,0,4.7,0.5,6.1,1.6
					c1.4,1,2,2.5,2,4.3v7.2c0,0.7,0.1,1.2,0.2,1.5c0.1,0.3,0.4,0.5,0.7,0.5c0.4,0,1-0.2,1.7-0.5V46.1z M85.9,42.5v-4.4
					c-1.6,0.6-2.7,1.2-3.4,1.7c-0.7,0.5-1.1,1.2-1.1,2.1c0,0.6,0.2,1.1,0.5,1.4c0.4,0.3,0.8,0.5,1.3,0.5c0.4,0,0.9-0.1,1.3-0.4
					C85,43.2,85.4,42.9,85.9,42.5z"/>
				<path class="st0" d="M111.4,41.6c0,1.7-0.6,3.1-1.9,4.2c-1.2,1.1-3.1,1.6-5.6,1.6c-1.4,0-2.6-0.1-3.7-0.4
					c-1.1-0.2-2.2-0.6-3.5-1.1v-4.7c1.1,0.6,2.1,1.1,2.9,1.4c0.8,0.3,1.7,0.5,2.7,0.5c1.6,0,2.5-0.5,2.5-1.4c0-0.3-0.1-0.6-0.4-0.8
					c-0.2-0.2-0.7-0.5-1.2-0.8c-0.6-0.3-1.4-0.7-2.4-1.1c-1.2-0.5-2.3-1.3-3.1-2.2c-0.9-0.9-1.3-2-1.3-3.3c0-0.9,0.3-1.8,0.9-2.7
					c0.6-0.9,1.4-1.6,2.6-2.1c1.1-0.5,2.5-0.8,4.1-0.8c0.4,0,0.9,0,1.5,0.1c0.6,0.1,1.4,0.2,2.3,0.4c0.9,0.2,1.8,0.6,2.6,1v4.6
					c-0.4-0.2-0.7-0.4-1-0.6c-0.3-0.2-0.6-0.3-1.1-0.5c-0.4-0.2-1-0.4-1.5-0.5c-0.6-0.2-1.2-0.2-1.8-0.2c-0.8,0-1.3,0.1-1.6,0.4
					c-0.3,0.3-0.4,0.6-0.4,0.9c0,0.3,0.1,0.6,0.4,0.8c0.3,0.3,0.9,0.6,2,1c1.5,0.6,2.6,1.1,3.5,1.7c0.9,0.6,1.5,1.2,1.9,1.9
					C111.2,39.8,111.4,40.6,111.4,41.6z"/>
			</g>
			<g>
				<path class="st1" d="M2.5,61.7v-9.2h3.1c1.3,0,2.3,0.2,3,0.6c0.7,0.4,1.3,0.9,1.8,1.7c0.4,0.7,0.6,1.5,0.6,2.4
					c0,0.6-0.1,1.2-0.4,1.8c-0.2,0.6-0.6,1.1-1,1.5c-0.5,0.4-1,0.8-1.6,1c-0.3,0.1-0.7,0.2-1,0.3c-0.3,0-0.8,0.1-1.7,0.1H2.5z
					 M5.4,53.6H3.8v6.9h1.7c0.7,0,1.2,0,1.5-0.1c0.4-0.1,0.7-0.2,0.9-0.3c0.2-0.1,0.5-0.3,0.7-0.5c0.7-0.7,1-1.5,1-2.5
					c0-1-0.3-1.8-1-2.4c-0.2-0.2-0.5-0.4-0.9-0.6c-0.3-0.2-0.6-0.2-0.9-0.3C6.5,53.7,6.1,53.6,5.4,53.6z"/>
				<path class="st1" d="M13.5,52.5h5.3v1.2h-3.9v2.8h3.8v1.2h-3.8v2.9h4.1v1.2h-5.4V52.5z"/>
				<path class="st1" d="M33.9,59.6V61c-1,0.5-2.1,0.8-3.4,0.8c-1,0-1.9-0.2-2.6-0.6c-0.7-0.4-1.3-1-1.7-1.7
					c-0.4-0.7-0.6-1.5-0.6-2.4c0-1.3,0.5-2.5,1.4-3.4c1-0.9,2.1-1.4,3.6-1.4c1,0,2.1,0.3,3.2,0.8v1.4c-1.1-0.6-2.1-0.9-3.2-0.9
					c-1.1,0-1.9,0.3-2.6,1c-0.7,0.7-1.1,1.5-1.1,2.5c0,1,0.3,1.9,1,2.5c0.7,0.7,1.6,1,2.6,1C31.7,60.6,32.8,60.3,33.9,59.6z"/>
				<path class="st1" d="M40.9,52.3c1.4,0,2.6,0.5,3.6,1.4c1,0.9,1.4,2,1.4,3.4c0,1.4-0.5,2.5-1.4,3.4c-1,0.9-2.2,1.3-3.6,1.3
					c-1.4,0-2.6-0.4-3.5-1.3c-0.9-0.9-1.4-2-1.4-3.4c0-1.4,0.5-2.5,1.4-3.4C38.3,52.8,39.5,52.3,40.9,52.3z M41,53.6
					c-1.1,0-1.9,0.3-2.6,1c-0.7,0.7-1,1.5-1,2.5c0,1,0.3,1.8,1,2.5c0.7,0.7,1.5,1,2.6,1c1,0,1.9-0.3,2.6-1c0.7-0.7,1-1.5,1-2.5
					c0-1-0.3-1.8-1-2.5C42.8,53.9,42,53.6,41,53.6z"/>
				<path class="st1" d="M48.5,61.7v-9.3h2.3c0.9,0,1.7,0.2,2.2,0.7c0.6,0.5,0.8,1.1,0.8,1.9c0,0.5-0.1,1-0.4,1.4
					c-0.3,0.4-0.7,0.7-1.2,0.9c0.3,0.2,0.6,0.5,0.9,0.8c0.3,0.3,0.7,0.9,1.2,1.8c0.3,0.5,0.6,0.9,0.8,1.2l0.5,0.7h-1.6l-0.4-0.6
					c0,0,0-0.1-0.1-0.1l-0.3-0.4L52.9,60l-0.4-0.7c-0.3-0.4-0.5-0.7-0.8-0.9c-0.2-0.2-0.4-0.4-0.6-0.5c-0.2-0.1-0.5-0.1-0.9-0.1
					h-0.3v4H48.5z M50.2,53.6h-0.4v2.9h0.5c0.7,0,1.1-0.1,1.4-0.2c0.2-0.1,0.4-0.3,0.6-0.5c0.1-0.2,0.2-0.5,0.2-0.8
					c0-0.3-0.1-0.6-0.2-0.8c-0.2-0.2-0.4-0.4-0.7-0.5C51.3,53.6,50.9,53.6,50.2,53.6z"/>
				<path class="st1" d="M57.6,61.7v-9.3h2.3c0.9,0,1.7,0.2,2.2,0.7c0.6,0.5,0.8,1.1,0.8,1.9c0,0.5-0.1,1-0.4,1.4
					c-0.3,0.4-0.7,0.7-1.2,0.9c0.3,0.2,0.6,0.5,0.9,0.8c0.3,0.3,0.7,0.9,1.2,1.8c0.3,0.5,0.6,0.9,0.8,1.2l0.5,0.7h-1.6l-0.4-0.6
					c0,0,0-0.1-0.1-0.1l-0.3-0.4L62,60l-0.4-0.7c-0.3-0.4-0.5-0.7-0.8-0.9c-0.2-0.2-0.4-0.4-0.6-0.5c-0.2-0.1-0.5-0.1-0.9-0.1h-0.3
					v4H57.6z M59.3,53.6h-0.4v2.9h0.5c0.7,0,1.1-0.1,1.4-0.2c0.2-0.1,0.4-0.3,0.6-0.5c0.1-0.2,0.2-0.5,0.2-0.8
					c0-0.3-0.1-0.6-0.2-0.8c-0.2-0.2-0.4-0.4-0.7-0.5C60.4,53.6,60,53.6,59.3,53.6z"/>
				<path class="st1" d="M66.7,52.5H68v9.3h-1.3V52.5z"/>
				<path class="st1" d="M70.9,52.5h5.3v1.2h-3.9v2.8h3.8v1.2h-3.8v2.9h4.1v1.2h-5.4V52.5z"/>
				<path class="st1" d="M86,52.5h1.3v9.3h-1.1l-6.2-7.1v7.1h-1.2v-9.3h1.1l6.2,7.2V52.5z"/>
				<path class="st1" d="M89.3,52.5h7.7v1.2h-3.2v8.1h-1.3v-8.1h-3.2V52.5z"/>
				<path class="st1" d="M99.2,52.5h5.3v1.2h-3.9v2.8h3.8v1.2h-3.8v2.9h4.1v1.2h-5.4V52.5z"/>
				<path class="st1" d="M109.2,57.8l-1-0.6c-0.6-0.4-1.1-0.8-1.3-1.1c-0.3-0.4-0.4-0.8-0.4-1.3c0-0.7,0.3-1.3,0.8-1.8
					c0.5-0.5,1.2-0.7,2-0.7c0.8,0,1.5,0.2,2.1,0.7v1.5c-0.7-0.6-1.4-1-2.2-1c-0.4,0-0.8,0.1-1.1,0.3c-0.3,0.2-0.4,0.5-0.4,0.8
					c0,0.3,0.1,0.5,0.3,0.8c0.2,0.2,0.5,0.5,1,0.8l1,0.6c1.1,0.7,1.7,1.5,1.7,2.6c0,0.7-0.2,1.3-0.7,1.8c-0.5,0.5-1.1,0.7-1.9,0.7
					c-0.9,0-1.7-0.3-2.5-0.8v-1.7c0.7,0.9,1.5,1.4,2.5,1.4c0.4,0,0.8-0.1,1-0.3c0.3-0.2,0.4-0.5,0.4-0.9
					C110.4,58.9,110,58.4,109.2,57.8z"/>
			</g>
			<path class="st0" d="M43.5,36.3v4h2.4v2.1c-1.9,0.4-3.5,0.2-4.6-0.5c-0.8-0.4-1.4-1-1.7-1.7c-0.4-0.7-0.6-1.8-0.6-2.6
				c0-0.7,0.2-1.7,0.5-2.4c0.3-0.7,0.9-1.4,1.8-1.9c0.9-0.5,2-0.8,3.5-0.8c1.3,0,2.4,0.2,3.2,0.5c0.9,0.3,3.2,1,3.2,1v-4.6l-0.3-0.1
				c-1.2-0.4-2.4-0.7-3.4-1c-1.1-0.2-2.4-0.4-4-0.4c-1,0-1.9,0.1-2.7,0.2c-0.8,0.1-1.7,0.4-2.5,0.7c-0.9,0.3-1.7,0.9-2.6,1.5
				c-1,0.8-1.8,1.9-2.3,3.2c-0.5,1.3-0.7,2.7-0.7,4c0,2.1,0.5,3.9,1.5,5.4c1,1.5,2.3,2.6,3.9,3.3c1.6,0.7,3.4,1,5.2,1
				c0.9,0,1.8,0,2.6-0.2c0.8-0.1,1.7-0.2,2.5-0.4c0.5-0.1,0.9-0.2,1.1-0.3c0.3-0.1,0.5-0.2,0.8-0.3c0.3-0.1,0.6-0.2,1-0.4l0.3-0.1
				v-9.4H43.5z"/>
		</g>
		<g>
			<path class="st0" d="M45.2,14c1.9,0.1,3.9,0.1,5.8,0c2-0.1,3.9-0.1,5.9-0.3c2-0.1,3.9-0.3,5.9-0.6c2-0.3,4.1-0.5,6.1-0.6
				c0.3,0,0.5,0,0.8-0.1c21.6-2.1,33.9,3,38.6,7.1c0.1,0.1,0.2,0.1,0.3,0.2c0.5,0.4,0.9,0.7,1.3,1.1c-2.5-7-18.9-16.1-31.7-16.3
				C58.4,4.2,38.6,8.5,26,1.8c-0.6,0.5-0.5,2.7,0.8,5.7c1.1,1.8,3.3,3.6,6.9,4.9c0.1,0,0.2,0.1,0.4,0.1C37.5,13.4,41.3,13.9,45.2,14
				z"/>
			<path class="st2" d="M103.5,17.9c-3.2-1.4-6.9-2.4-10.7-3c-7.6-1.3-15.8-1.3-23.6-0.5c-2,0.2-3.9,0.5-5.8,0.8c-2,0.3-4,0.6-6,0.8
				c-4.1,0.4-8.3,0.6-12.5,0.3c-4.2-0.3-8.4-1-12-2.3c-1.9-0.7-3.6-1.6-4.9-2.6c2.5,3.2,7.6,6.7,14.7,9.3c4.9,1.9,11.3,2.6,18.7,2.4
				c17.1-0.4,35.7-3.3,48.9,0.7c0-0.5-1.2-2.2-2.2-3C106.9,19.8,105.1,18.6,103.5,17.9z"/>
		</g>
	</g>
	<g>
		<path class="st0" d="M21.4,19.7L33.5,47h-7.3l-2.2-5.4H11.7l-2,5.4H2.5l11-27.3H21.4z M21.9,36.8l-4.4-10.6l-4,10.6H21.9z"/>
	</g>
</g>
</svg>
