<?xml version="1.0" encoding="UTF-8"?> <svg xmlns="http://www.w3.org/2000/svg" viewBox="0 0 545.44 160.02"><defs><style>.cls-1{fill:#fff;}</style></defs><g id="Layer_2" data-name="Layer 2"><g id="Capa_1" data-name="Capa 1"><path class="cls-1" d="M249,112.87c0,12.74,0,24.87,0,37,0,4.21-1.12,7.83-5.49,9.53a6.87,6.87,0,0,1-2.28.56c-6.41,0-12.83.12-19.25-.06-4.71-.13-7.72-3.38-8.28-8.45a26.6,26.6,0,0,1-.08-3q0-51.54,0-103.09a24.65,24.65,0,0,1,.58-5.56c.91-4,3.32-6.28,7.44-6.43,6.59-.26,13.21-.32,19.8,0,5.23.23,6.81,4.31,7.7,8.7.24,0,.51,0,.6-.12,10.71-13.39,31.27-12.48,42.61-6.44,15.37,8.19,22.16,21.62,23.46,38.2,1,12.77-1.9,24.7-9.75,35.13-11.75,15.61-36.17,20.86-51.21,9.5C252.89,116.89,251.25,115,249,112.87Zm-.63-35c.8,3.32,1.22,6.8,2.5,9.91a13.91,13.91,0,0,0,11.88,9c6.11.67,11-1.32,14.34-6.77,4.27-7,4.46-14.45,1.41-21.82a14.73,14.73,0,0,0-20.62-7.75C250.82,64,248.88,70.42,248.33,77.86Z"></path><path class="cls-1" d="M66.74,42.64c0-2.62,0-4.56,0-6.5q0-11.85.09-23.7A22.34,22.34,0,0,1,67,9.49C67.9,2.47,70.6.07,77.71,0c4.73,0,9.46,0,14.2,0,6.7,0,9.92,3,10.48,9.76.1,1.28,0,2.57,0,3.85q0,47.85,0,95.68c0,10.47-2.68,13.19-13.07,13.23-3.85,0-7.7.06-11.55,0-6.8-.09-9.55-2.31-11.19-8.93-.19,0-.46,0-.55.1C55.88,127,34.93,126.83,22.22,119.37,7.57,110.76,1.13,97.4.12,80.91c-.65-10.71,1.27-20.85,7-30C14.66,38.79,25.51,32,40,31.47c7.69-.29,15,.77,21.15,5.88C62.87,38.79,64.43,40.44,66.74,42.64ZM51.15,96.84c6.65,0,11.5-3.5,14-9.78,2.84-7.18,3-14.15-1-21-3-5.07-7.45-7.39-13.3-7.19s-10.1,2.67-12.63,7.83a24.16,24.16,0,0,0-.82,20.32C39.87,93.17,44.29,96.8,51.15,96.84Z"></path><path class="cls-1" d="M372.18,31.4a52.73,52.73,0,0,1,28.44,7.7c20.11,12.37,28.13,36.53,17.13,59.13-6.43,13.21-18,21-32.16,24.5-13.11,3.18-26.14,2.47-38.54-3.19-15.69-7.16-25.62-19.13-27.35-36.53-1.64-16.43,3.5-30.57,17.12-40.83C346.73,34.72,357.93,31.09,372.18,31.4Zm17.17,46.14c-.17-11.35-7.56-18.45-19.05-18.32-10.49.11-18,8-17.73,18.82.24,11.16,7.65,18.7,18.39,18.55C382.4,96.44,389.58,88.49,389.35,77.54Z"></path><path class="cls-1" d="M140.39,85.22a13.41,13.41,0,0,0,7.5,8.9c7.74,4,15.88,4.3,24.16,2,3.32-.93,6.56-2.15,9.86-3.15s6.55-.7,8.83,2.21a54.24,54.24,0,0,1,6.44,9.43c1.92,4,.73,6.81-2.82,9.51-8,6.12-17.34,9.09-27.16,10-12,1.12-23.81,0-34.9-5.52-13.2-6.61-21.64-16.83-24.41-31.43-3.4-17.91,2-32.95,15.55-44.95,7.43-6.55,16.5-9.69,26.21-10.51,10.7-.9,21.31-.34,31.3,4.37,11.91,5.61,20.14,14.46,23.32,27.36a53.29,53.29,0,0,1,1.54,14.77c-.2,4.48-3.26,6.72-7.8,6.81-9.67.18-19.35.18-29,.22-7.8,0-15.6,0-23.4,0Zm16.48-17c3.84,0,7.69.13,11.53-.05A24.31,24.31,0,0,0,173.25,67c-.75-1.76-1.5-3.52-2.28-5.27-.11-.24-.45-.38-.66-.58-5.95-5.87-18.23-5.83-24-1.76a18.41,18.41,0,0,0-4.86,5.31c-1.39,2.26-.5,3.52,2.15,3.56C148,68.3,152.43,68.26,156.87,68.26Z"></path><path class="cls-1" d="M432.3,77.37c0-5-.09-10.07.05-15.11.06-2.28-.65-3.31-3-3.13-7.93.57-9.83-2-9-9.45.42-3.6-.12-7.3,0-10.94.17-4.08,1.12-5,5.12-5.42,2.84-.27,5.71-.35,8.57-.43,1.49,0,2.27-.46,2.52-2.14.66-4.28,1.56-8.52,2.39-12.78.94-4.85,3-6.56,7.88-6.59,4.45,0,8.89-.06,13.34,0s6.72,2.24,6.86,6.71q.18,5.93,0,11.85c-.06,2.14.65,3,2.87,3,4.43,0,8.87.22,13.31.4,2.78.11,4.59,1.64,4.7,4.36.22,5.61.35,11.24.05,16.84-.16,3.09-2.28,4.46-5.91,4.56-3.95.11-7.9.13-11.85,0-2.34-.08-3.17.86-3.15,3.12.06,9.78,0,19.56.07,29.34,0,2.34.5,4.69,3.42,5.1,2.09.28,3.9-1.78,4.23-4.78.2-1.86.11-3.75.23-5.62.17-2.64,1.39-4.24,4.26-4.24,4.35,0,8.7-.2,13,0,4.92.19,6.43,2.81,7,8.34,1.68,17.94-7.21,31.9-27.5,33.9-7.71.76-15.42.14-22.65-3.1-9.93-4.45-15.05-12.49-16.13-23-.71-6.86-.67-13.79-1-20.69Z"></path><path class="cls-1" d="M545.41,104.74c.64,8.5-7.18,14.9-14.35,15.39-9.73.66-16.24-6.89-16.71-15.13-.48-8.5,6.62-15.74,15.25-16C537.53,88.69,546,94.88,545.41,104.74Z"></path></g></g></svg> 