<?xml version="1.0" encoding="utf-8"?>
<!-- Generator: Adobe Illustrator 25.1.0, SVG Export Plug-In . SVG Version: 6.00 Build 0)  -->
<svg version="1.1" id="Layer_1" xmlns="http://www.w3.org/2000/svg" xmlns:xlink="http://www.w3.org/1999/xlink" x="0px" y="0px"
	 viewBox="0 0 128 128" style="enable-background:new 0 0 128 128;" xml:space="preserve">
<style type="text/css">
	.st0{fill:#00C1DE;}
</style>
<path class="st0" d="M121,56.2c-3.6-3.9-8.2-6.6-13.3-7.9c-0.2-17.1-14.2-30.8-31.3-30.8c-9.8,0-18.9,4.5-24.7,12.1
	c-3.3-1.3-6.7-2.1-10.3-2.1c-14.5,0-26.3,11.8-26.3,26.3c0,1.6,0.1,3,0.4,4.6C6.6,61,0.2,69.2,0.2,78.9c0,11.8,9.5,21.3,21.3,21.3
	h80.2c14.5,0,26.3-11.8,26.3-26.3C127.9,67.3,125.4,61,121,56.2z M87.3,73.7C84.1,84.1,74.8,91,64,91c-6.5,0-12.6-2.6-17.1-7.1v0.9
	c0,2-1.7,3.7-3.7,3.7c-2,0-3.7-1.7-3.7-3.7v-9.8c0-2,1.7-3.7,3.7-3.7H53c2,0,3.7,1.7,3.7,3.7c0,2-1.7,3.7-3.7,3.7h-0.9
	c3.1,3.1,7.4,4.9,11.9,4.9c7.5,0,14.2-4.8,16.4-12.1c0.6-1.9,2.7-3,4.6-2.4C86.9,69.8,87.9,71.8,87.3,73.7z M88.5,58
	c0,2-1.7,3.7-3.7,3.7H75c-2,0-3.7-1.7-3.7-3.7c0-2,1.7-3.7,3.7-3.7h0.9c-3.1-3-7.4-4.9-11.9-4.9c-7.5,0-14.2,4.8-16.4,12
	c-0.4,1.6-1.9,2.6-3.5,2.6c-0.3,0-0.7,0-1.1-0.1c-1.9-0.6-3-2.7-2.5-4.6C43.8,49,53.2,42.2,64,42.2c6.5,0,12.6,2.6,17.1,7.1v-0.9
	c0-2,1.7-3.7,3.7-3.7s3.7,1.7,3.7,3.7V58z"/>
</svg>
